<svg xmlns="http://www.w3.org/2000/svg" data-name="Layer 1" viewBox="0 0 3756.75 3538.42"><path fill="#e9e9f2" d="m258.49,2094.28C99.16,1813.97-7.21,1479.53,94.13,1180.53c96.17-283.76,375.15-428.85,649.43-497.11,286.8-71.38,587.9-79.52,877.77-140.19,304.1-63.64,603.02-152.4,892.06-266.42,131.09-51.71,260.72-108.78,397.3-143.5,246.23-62.59,548.36-23.08,709.21,193.27,167.95,225.91,175.57,552.9,54.29,801.69-138.56,284.23-387.09,507.08-478.35,815.77-55.31,187.12-42.28,390.43-107.58,574.02-63.95,179.8-160.67,349.54-293.32,487.6-151.39,157.58-351.06,272.09-567.07,305.09-298.25,45.56-598.62-63.96-866.24-203.26-357.83-186.25-691.39-435.12-935.61-759.2-57.9-76.83-115.53-162.54-167.53-254.01Z" opacity=".36"/><rect width="3631.13" height="126.55" x="90.02" y="3411.87" fill="#141921"/><rect width="549.39" height="269.22" x="2960.89" y="1450.36" fill="#ee4b6d" rx="50.29" ry="50.29"/><path fill="#fff" d="m3134.12,1541.1v87.75h-16.3v-37.61h-45.38v37.61h-16.3v-87.75h16.3v36.23h45.38v-36.23h16.3Z"/><path fill="#fff" d="m3175.48,1554.89h-29.08v-13.79h74.46v13.79h-29.08v73.96h-16.3v-73.96Z"/><path fill="#fff" d="m3313.74,1628.84l-.13-58.16-28.83,48.13h-7.27l-28.83-47.38v57.41h-15.54v-87.75h13.41l34.85,58.16,34.22-58.16h13.41l.13,87.75h-15.42Z"/><path fill="#fff" d="m3352.84,1541.1h16.3v73.96h45.88v13.79h-62.17v-87.75Z"/><rect width="8" height="9" x="3231.58" y="1750.88" fill="#3b3d53"/><path fill="#3b3d53" d="m3239.58,1902.92h-8v-17.88h8v17.88Zm0-35.76h-8v-17.88h8v17.88Zm0-35.76h-8v-17.88h8v17.88Zm0-35.76h-8v-17.88h8v17.88Z"/><rect width="8" height="9" x="3231.58" y="1920.79" fill="#3b3d53"/><rect width="549.39" height="269.22" x="446.07" y="236.97" fill="#383a50" rx="50.29" ry="50.29"/><rect width="8" height="9" x="716.76" y="537.49" fill="#3b3d53"/><path fill="#3b3d53" d="m724.76,689.52h-8v-17.88h8v17.88Zm0-35.76h-8v-17.88h8v17.88Zm0-35.76h-8v-17.88h8v17.88Zm0-35.76h-8v-17.88h8v17.88Z"/><rect width="8" height="9" x="716.76" y="707.4" fill="#3b3d53"/><path fill="#3b3d53" d="m2463.69,1971.47h-13.54v-6.02h13.54c1.72,0,3.37-.75,4.52-2.06l4.52,3.97c-2.29,2.61-5.59,4.11-9.04,4.11Zm-27.08,0h-13.54v-6.02h13.54v6.02Zm-27.08,0h-13.54v-6.02h13.54v6.02Zm-27.08,0h-13.54v-6.02h13.54v6.02Zm-27.08,0h-13.54v-6.02h13.54v6.02Zm-27.08,0h-13.54v-6.02h13.54v6.02Zm-27.08,0h-13.54v-6.02h13.54v6.02Zm-27.08,0h-13.54v-6.02h13.54v6.02Zm-27.08,0h-13.54v-6.02h13.54v6.02Zm-27.08,0h-13.54v-6.02h13.54v6.02Zm-27.08,0h-13.54v-6.02h13.54v6.02Zm-27.08,0h-13.54v-6.02h13.54v6.02Zm-27.08,0h-13.54v-6.02h13.54v6.02Zm-27.08,0h-13.54v-6.02h13.54v6.02Zm-27.08,0h-13.54v-6.02h13.54v6.02Zm-27.32-.04c-6.2-.5-11.06-5.77-11.06-12v-.09h6.02v.09c0,3.11,2.43,5.75,5.53,6l-.48,6Zm418.44-19.04h-6.02v-13.54h6.02v13.54Zm-423.48-6.58h-6.02v-13.54h6.02v13.54Zm423.48-20.49h-6.02v-13.54h6.02v13.54Zm-423.48-6.58h-6.02v-13.54h6.02v13.54Zm423.48-20.49h-6.02v-13.54h6.02v13.54Zm-423.48-6.58h-6.02v-13.54h6.02v13.54Zm423.48-20.49h-6.02v-13.54h6.02v13.54Zm-423.48-6.58h-6.02v-13.54h6.02v13.54Zm423.48-20.49h-6.02v-13.54h6.02v13.54Zm-423.48-6.58h-6.02v-13.54h6.02v13.54Zm423.48-20.49h-6.02v-13.54h6.02v13.54Zm-423.48-6.58h-6.02v-13.54h6.02v13.54Zm423.48-20.49h-6.02v-13.54h6.02v13.54Zm-423.48-6.58h-6.02v-13.54h6.02v13.54Zm423.48-20.49h-6.02v-13.54h6.02v13.54Zm-423.48-6.58h-6.02v-13.54h6.02v13.54Zm423.48-20.49h-6.02v-13.54h6.02v13.54Zm-423.48-6.58h-6.02v-13.54h6.02v13.54Zm423.48-20.49h-6.02v-13.54h6.02v13.54Zm-423.48-6.58h-6.02v-13.54h6.02v13.54Zm423.48-20.49h-6.02v-13.54h6.02v13.54Zm-423.48-6.58h-6.02v-13.54h6.02v13.54Zm423.48-20.49h-6.02v-13.54h6.02v13.54Zm-423.48-6.58h-6.02v-13.54h6.02v13.54Zm423.48-20.49h-6.02v-13.54h6.02v13.54Zm-423.48-6.58h-6.02v-13.54h6.02v13.54Zm423.48-20.49h-6.02v-13.54h6.02v13.54Zm-423.48-6.58h-6.02v-13.54h6.02v13.54Zm423.48-20.49h-6.02v-13.54h6.02v13.54Zm-423.48-6.58h-6.02v-13.54h6.02v13.54Zm423.48-20.49h-6.02v-13.54h6.02v13.54Zm-423.48-6.58h-6.02v-13.54h6.02v13.54Zm423.48-20.49h-6.02v-13.54h6.02v13.54Zm-423.48-6.58h-6.02v-13.54h6.02v13.54Zm423.48-20.49h-6.02v-13.54h6.02v13.54Zm-423.48-6.58h-6.02v-13.54h6.02v13.54Zm423.48-20.49h-6.02v-13.54h6.02v13.54Zm-423.48-6.58h-6.02v-13.54h6.02v13.54Zm423.48-20.49h-6.02v-13.54h6.02v13.54Zm-423.48-6.58h-6.02v-13.54h6.02v13.54Zm423.48-20.49h-6.02v-13.54h6.02v13.54Zm-423.48-6.58h-6.02v-13.54h6.02v13.54Zm423.48-20.49h-6.02v-13.54h6.02v13.54Zm-423.48-6.58h-6.02v-13.54h6.02v13.54Zm416.95-19.16c-.97-2.19-3.13-3.6-5.51-3.6h-3.11v-6.02h3.11c4.75,0,9.07,2.82,11,7.17l-5.5,2.44Zm-413.41-3.06l-2.5-5.47c1.57-.72,3.24-1.08,4.97-1.08h9.7v6.02h-9.7c-.86,0-1.69.18-2.47.54Zm391.25-.54h-13.54v-6.02h13.54v6.02Zm-27.08,0h-13.54v-6.02h13.54v6.02Zm-27.08,0h-13.54v-6.02h13.54v6.02Zm-27.08,0h-13.54v-6.02h13.54v6.02Zm-27.08,0h-13.54v-6.02h13.54v6.02Zm-27.08,0h-13.54v-6.02h13.54v6.02Zm-27.08,0h-13.54v-6.02h13.54v6.02Zm-27.08,0h-13.54v-6.02h13.54v6.02Zm-27.08,0h-13.54v-6.02h13.54v6.02Zm-27.08,0h-13.54v-6.02h13.54v6.02Zm-27.08,0h-13.54v-6.02h13.54v6.02Zm-27.08,0h-13.54v-6.02h13.54v6.02Zm-27.08,0h-13.54v-6.02h13.54v6.02Zm-27.08,0h-13.54v-6.02h13.54v6.02Z"/><rect width="1913.58" height="1385.7" x="1006.61" y="364.28" fill="#e8e8f1" rx="18.68" ry="18.68"/><path fill="#d9d9e7" d="m2920.2,476.69v-91.83c0-11.31-9.26-20.57-20.57-20.57h-1872.45c-11.31,0-20.57,9.26-20.57,20.57v91.83h1913.58Z"/><circle cx="2699.02" cy="417.44" r="19.55" fill="#fff" transform="rotate(-76.72 2698.94 417.48)"/><circle cx="2766.23" cy="417.44" r="19.55" fill="#fff" transform="rotate(-45 2766.238 417.437)"/><circle cx="2833.44" cy="417.44" r="19.55" fill="#fff" transform="rotate(-76.72 2833.351 417.486)"/><rect width="476.56" height="159.47" x="1222.9" y="344.12" fill="#e8e8f1" rx="18.68" ry="18.68"/><rect width="1802.03" height="1143.75" x="1053.58" y="540.92" fill="#fff"/><rect width="722.06" height="43.95" x="1191.28" y="652.21" fill="#b33b5e" rx="21.98" ry="21.98"/><rect width="627.88" height="21.98" x="1191.28" y="736.97" fill="#d9d9e7" rx="10.99" ry="10.99"/><rect width="627.88" height="21.98" x="1850.46" y="736.97" fill="#d9d9e7" rx="10.99" ry="10.99"/><rect width="627.88" height="21.98" x="1319.87" y="812.32" fill="#d9d9e7" rx="10.99" ry="10.99"/><rect width="627.88" height="21.98" x="1979.06" y="812.32" fill="#d9d9e7" rx="10.99" ry="10.99"/><rect width="627.88" height="21.98" x="1191.28" y="957.41" fill="#d9d9e7" rx="10.99" ry="10.99"/><rect width="627.88" height="21.98" x="1850.46" y="957.41" fill="#d9d9e7" rx="10.99" ry="10.99"/><rect width="627.88" height="21.98" x="1319.87" y="1032.76" fill="#d9d9e7" rx="10.99" ry="10.99"/><rect width="627.88" height="21.98" x="1979.06" y="1032.76" fill="#d9d9e7" rx="10.99" ry="10.99"/><rect width="627.88" height="21.98" x="1191.28" y="1103.79" fill="#d9d9e7" rx="10.99" ry="10.99"/><rect width="627.88" height="21.98" x="1850.46" y="1103.79" fill="#d9d9e7" rx="10.99" ry="10.99"/><rect width="627.88" height="21.98" x="1319.87" y="1179.14" fill="#d9d9e7" rx="10.99" ry="10.99"/><rect width="627.88" height="21.98" x="1191.28" y="1369.78" fill="#d9d9e7" rx="10.99" ry="10.99"/><rect width="627.88" height="21.98" x="1191.28" y="1300.5" fill="#d9d9e7" rx="10.99" ry="10.99"/><rect width="627.88" height="21.98" x="1850.46" y="1369.78" fill="#d9d9e7" rx="10.99" ry="10.99"/><rect width="627.88" height="21.98" x="1191.28" y="1445.62" fill="#d9d9e7" rx="10.99" ry="10.99"/><rect width="627.88" height="21.98" x="1850.46" y="1445.62" fill="#ee4b6d" rx="10.99" ry="10.99"/><rect width="627.88" height="21.98" x="1979.06" y="1179.14" fill="#d9d9e7" rx="10.99" ry="10.99"/><path fill="#ee4b6d" d="m396.39,3100.87c0-9.91,71.35-200.18,192.25-243.78-47.57,202.16-138.74,278.4-176.39,293.79-11.89-18.3-15.86-50.01-15.86-50.01Z"/><path fill="#ee4b6d" d="m396.39,2930.43s61.44-112.97,192.25-97.12c-75.31,47.57-192.25,118.24-192.25,118.24v-21.12Z"/><path fill="#ee4b6d" d="m407.77,2690.22s26.28-183.93,194.75-211.68c-103.06,140.72-194.75,211.68-194.75,211.68Z"/><path fill="#ee4b6d" d="m401.96,2777.18s217.68-122.24,217.68-185.67c-13.87,99.1-71.35,184.32-221.98,221.98-3.96-3.96,4.3-36.31,4.3-36.31Z"/><path fill="#ee4b6d" d="m511.35,2329.89s-61.44-150.63,0-225.94c29.73,45.59,25.77,158.56,0,225.94Z"/><path fill="#ee4b6d" d="m532.18,2272.41s48.53-101.08,133.76-122.88c-39.64,101.08-133.76,122.88-133.76,122.88Z"/><path fill="#ee4b6d" d="m362.7,2444.84s-77.3-77.3-83.24-172.43c67.39,49.55,83.24,172.43,83.24,172.43Z"/><path fill="#ee4b6d" d="m243.78,2518.18s-148.65-116.94-160.54-245.76c93.15,43.6,160.54,245.76,160.54,245.76Z"/><path fill="#ee4b6d" d="m269.55,2574.66s-93.15-.99-162.52-104.05c75.31,15.86,162.52,104.05,162.52,104.05Z"/><path fill="#ee4b6d" d="m338.92,2805.56S124.86,2672.77,0,2680.7c93.15-59.46,281.44,0,338.92,124.86Z"/><path fill="#ee4b6d" d="m384.5,3150.89s-99.1-53.97-124.86-190.73c75.31,3.96,140.72,141.64,124.86,190.73Z"/><path fill="#ee4b6d" d="m396.39,2849.16s-55.49-105.04-33.69-166.49c31.71,45.34,43.6,126.85,33.69,166.49Z"/><path fill="#ee4b6d" d="m297.3,2657.48s47.57-121.47,130.81-139.31c-23.78,55.49-130.81,139.31-130.81,139.31Z"/><path fill="none" stroke="#109490" stroke-miterlimit="10" stroke-width="2.48" d="m237.18,2499.84s134.31,329.5,162.62,632.74c-60.88-483.6,132.39-860.17,132.39-860.17"/><path fill="#ee4b6d" d="m359.57,2426.84s9.57,118.24,59.12,201.24"/><path fill="#383a4f" d="m301.97,3118.71h181.25c17.93,0,31.65,15.96,28.96,33.68l-38.49,253.7h-168.47l-38.95-245.58c-3.48-21.95,13.48-41.81,35.7-41.81Z"/><polygon fill="#e8e8f1" points="3438.31 2046.37 3295.72 2046.37 3165.52 2795.57 2570.33 2795.57 2570.33 2932.74 3289.52 2932.74 3438.31 2046.37"/><polygon fill="#d9d9e7" points="3019.82 2046.37 3295.72 2046.37 3165.52 2795.57 2570.33 2795.57 3019.82 2046.37"/><polygon fill="#fbc9be" points="2130.34 3356.87 2232.43 3356.43 2281.95 3194.04 2186.72 3171.96 2130.34 3356.87"/><path fill="#0c0e0e" d="m2236.08,3335.33c-24.02,6.41-78.4,27.38-103.91-9.59l-172.42,93.43,304.37-2-14.19-72.7c-.97-6.58-7.43-10.85-13.86-9.14Z"/><rect width="304.38" height="26.38" x="1959.85" y="3418.17" fill="#fff" transform="rotate(179.62 2111.934 3431.421)"/><path fill="#e9e9f2" d="m2581.37,2575.42l-193.08,65.31c-50.62,17.12-90.1,57.25-106.4,108.14l-173.59,505.93,182.85,21.66,200.54-494.76,89.67-206.27Z"/><polygon fill="#fbc9be" points="2644.07 3356.65 2746.16 3356.22 2693.14 3194.26 2591.05 3194.69 2644.07 3356.65"/><path fill="#0c0e0e" d="m2740.86,3335.33c-24.02,6.41-78.4,27.38-103.91-9.59l-172.42,93.43,304.37-2-14.19-72.7c-.97-6.58-7.43-10.85-13.86-9.14Z"/><rect width="304.38" height="26.38" x="2464.63" y="3418.17" fill="#fff" transform="rotate(179.62 2616.71 3431.44)"/><path fill="#fff" d="m3057.35,2552.62s73.52,179.29-68.46,237.88c0,0-108.38,34.47-375.87,19.82l139.52,441.71-170.42,18.72-176.61-475.65c-21.18-57.05,2.13-121.04,55.05-151.09l160.96-91.39h435.83Z"/><path fill="#f79f8c" d="m2622.36,2412.16c12.79,28.89,46.82,41.72,76.08,28.82,29.17-12.85,42.48-46.64,29.68-75.49-12.77-28.78-46.82-41.63-76.03-28.78-29.24,12.88-42.48,46.69-29.73,75.44Z"/><path fill="#f79f8c" d="m2435.22,2534.56l-32.97-62.02c119.35-76.79,166.19-103.62,239.5-140.91l56.99,100.11c-37.26,25.58-162.11,83.81-263.52,102.82Z"/><path fill="#f79f8c" d="m2657.68,2054.88c16.35-54.14,136.52-44.56,128.13,22.15-9.93,79-41.9,274.79-55.14,323.18l-114.19-14s14.92-244.39,41.2-331.33Z"/><path fill="#f79f8c" d="m2724.65,2416.4c-15.41,27.61-50.49,37.25-78.43,21.74-27.83-15.49-38-50.37-22.59-77.93,15.34-27.46,50.42-37.16,78.34-21.66,27.92,15.52,38.07,50.39,22.68,77.85Z"/><path fill="#ee4b6d" d="m2738.3,2000.22c-47.33-8.05-94.8,32.74-102.83,80.08l-40.13,210.55c-1.99,11.59,34.83,27.51,82.16,35.57,47.36,8.05,87.31,5.17,89.3-6.41l40.11-210.54c8.05-47.37-21.25-101.2-68.61-109.24Z"/><path fill="#f79f8c" d="m2362.1,2454.31c4.83-.23,10.04-.29,15.7-.08,6.37.25,32.01,2.38,48,20.14,3.58,3.98-21.43,11.15-37.2,15.19l-26.5-35.25Z"/><path fill="#f79f8c" d="m2375.4,2472.01c18.33-8.95,37.53-14.44,51.6,1.84,17.65,20.42,25.88,49.3,4.89,73.3l-56.49-75.14Z"/><path fill="#010101" d="m2739.42,2221.15c-.4,0-.4.66,0,.66.42,0,.42-.66,0-.66Z"/><path fill="#ee4b6d" d="m2705.8,2551.24c-.11,39.27,55.21,67.56,139.38,68.58,93.7,1.14,217.03-29.12,214.65-73.19-2.44-45.54-13.06-79.54-13.71-106.91-2.22-92.74,34.38-383.17,34.38-383.17,0-49.87-43.06-86.63-198.41-86.63-164.26,0-179.87,50.82-179.87,100.68,0,0,5.5,187.91,4.83,318.64-.27,53.32-1.16,132.46-1.25,162Z"/><path fill="#f79f8c" d="m3079.93,2359.31c-17.7,26.16-10.51,61.83,15.95,79.77,26.37,17.9,62.08,11.23,79.74-14.91,17.59-26.1,10.42-61.8-15.97-79.71-26.45-17.94-62.13-11.24-79.72,14.86Z"/><path fill="#f79f8c" d="m2882.51,2523.25l-27.65-64.58c125.47-66.37,157.4-73.78,250.65-120.05l48.27,104.58c-39.31,22.33-168.64,69.75-271.28,80.06Z"/><path fill="#f79f8c" d="m3121.14,2048.33c-19.04-53.27-139.02-36.04-126.52,30.03,14.79,78.24,58.83,271.66,75.02,319.17l113.1-21.05c.58-40.96-23.62-221.88-61.6-328.15Z"/><path fill="#f79f8c" d="m3076.68,2413.29c17.07,26.59,52.66,34.05,79.59,16.85,26.82-17.19,34.83-52.63,17.76-79.19-17.02-26.46-52.63-33.96-79.54-16.77-26.91,17.21-34.87,52.65-17.81,79.1Z"/><path fill="#ee4b6d" d="m3037.31,1998.76c46.75-10.96,96.63,26.81,107.57,73.55l53.08,207.67c2.68,11.45-33.04,29.62-79.81,40.58-46.75,10.96-86.84,10.56-89.5-.88l-53.08-207.66c-10.96-46.77,14.96-102.31,61.74-113.27Z"/><path fill="#f79f8c" d="m2746.63,2466.31c4.06,12.72,24.4,7.25,35.82,7.59,11.23.32,44.4,6.51,44.4,6.51,6.25-1.74,52.97-15.11,47.9-20.25-16.77-16.99-42.48-17.95-48.87-17.88-22.62.2-37.83,4.3-50.35,6.29-11.99,1.87-33.89,1.97-28.9,17.74Z"/><path fill="#f79f8c" d="m2796.44,2500.8l-74.72,18.95c-6.75,1.78-13.36-1.01-14.87-7.35-1.55-6.31,3.86-11.28,10.66-13.05l92.09-29.15c6.8-1.79-6.38,28.79-13.17,30.6Z"/><path fill="#f79f8c" d="m2837.18,2536.28c3.21,5.69,11.32,12.97,5.1,16.2l-76.13,34.25c-6.27,3.22-16.49,2.36-19.72-3.32-3.2-5.67-.3-11.67,5.9-14.87l68.7-34.84c6.24-3.23,12.9-3.09,16.15,2.59Z"/><path fill="#f79f8c" d="m2813.81,2502.62c2.34,6.84-2.03,14.51-9.7,17.2l-84.61,27.69c-7.65,2.66-15.13.75-17.45-6.07-2.3-6.85,3.45-12.84,11.13-15.5l82.55-30.83c7.71-2.7,15.78.69,18.07,7.52Z"/><path fill="#f79f8c" d="m2828,2519.04c2.79,6.61,4.01,16.25-3.51,19.33l-86.71,29.55c-7.52,3.09-16.42,2.59-19.25-4.08-2.84-6.62,2.4-12.31,9.88-15.38l80.83-35.87c7.5-3.08,15.89-.19,18.75,6.45Z"/><path fill="#f79f8c" d="m2790.87,2477.9c24.16-6.59,65.81-40.51,87.88-14.05,22.09,26.47,25.48,67.7-38.73,90.63-46.4,15.63-49.14-76.58-49.14-76.58Z"/><path fill="#f79f8c" d="m2835.5,1994.79c7.71,22.23,31.49,26.75,52.34,25.87,23.01-.97,53.27-7.23,60.69-32.69,5.1-17.55.41-37.38-.23-55.29-.44-11.9-.43-23.83.16-35.73.35-7.31.93-14.61,1.75-21.88.67-5.87,1.45-11.74,2.35-17.58.61-3.93,1.27-7.85,2-11.76.5-2.73,3.53-10.14.33-11.92-2.97-1.64-8.78,3.69-11.17,5.23-35.07,22.54-71.79,42.52-109.79,59.69-1.5.66-3.05,1.41-3.91,2.81-.81,1.32-.79,2.97-.74,4.54.38,12.5.77,25.02,1.14,37.52.14,4.86.16,9.74.24,14.6.15,12.37.72,24.72,4.85,36.6Z"/><path fill="#d8887c" d="m2830.66,1958.19c33.13-10.25,64.83-24.97,93.58-44.24,8-5.35,16.23-11.01,24.23-17,.35-7.31.93-14.61,1.75-21.88.67-5.87,1.45-11.74,2.35-17.58.61-3.93,1.27-7.85,2-11.76.5-2.73,3.53-10.14.33-11.92-2.97-1.64-8.78,3.69-11.17,5.23-35.07,22.54-71.79,42.52-109.79,59.69-1.5.66-3.05,1.41-3.91,2.81-.81,1.32-.79,2.97-.74,4.54.38,12.5.77,25.02,1.14,37.52.14,4.86.16,9.74.24,14.6Z"/><path fill="#f79f8c" d="m2802.55,1819.37c-4.8,16.83-22.33,26.59-39.16,21.79-16.83-4.8-26.59-22.33-21.79-39.16,4.8-16.83,22.33-26.59,39.16-21.79,16.83,4.8,26.59,22.33,21.79,39.16Z"/><path fill="#f79f8c" d="m2770.19,1710.91s-22.88,106.27-8.34,148.27c14.54,42.01,48.91,68.07,103.73,56.42,0,0,63.66-4.2,78.09-99.02,21.73-142.76-108.41-182.57-173.48-105.68Z"/><path fill="#f79f8c" d="m2972.1,1823.66c-3.98,13.96-18.51,22.05-32.47,18.07-13.96-3.98-22.05-18.51-18.07-32.47,3.98-13.96,18.51-22.05,32.47-18.07,13.96,3.98,22.05,18.51,18.07,32.47Z"/><path fill="none" stroke="#ed8b62" stroke-linecap="round" stroke-linejoin="round" stroke-width="1.54" d="m2958.55,1808.59s-19.35-5.21-24.12,16.07"/><path fill="#121212" d="m2794.88,1785.48c-1.16,4.73-5.93,7.63-10.66,6.47-4.73-1.16-7.63-5.93-6.47-10.66,1.16-4.73,5.93-7.63,10.66-6.47,4.73,1.16,7.63,5.93,6.47,10.66Z"/><path fill="#121212" d="m2869.43,1785.73c-1.16,4.73-5.93,7.63-10.66,6.47-4.73-1.16-7.63-5.93-6.47-10.66,1.16-4.73,5.93-7.63,10.66-6.47,4.73,1.16,7.63,5.93,6.47,10.66Z"/><polyline fill="none" stroke="#88514f" stroke-miterlimit="10" stroke-width="4" points="2814.11 1793.76 2798.45 1816.72 2812.38 1825.03"/><path fill="#10133b" d="m2791.25,1730.32c-1.97-1-3.13-.01-12.53,1.04-3.68.41-4.65.43-5.24.53-2.9.49-9.23,5.28-13.54,47.04-6.05-9.71-14.14-25.2-18.53-45.62-2.84-13.21-9.54-46.64,7.02-82.38,18.25-39.4,52.83-55.84,62.29-60.17,40.42-18.49,98.86-19.64,127.93,7.11,8.65,7.96,26.07,28.85,59.81,51.59.56.38.47.31.64.43,30.22,20.66,30.26,67.69,30.29,95.05.02,16.73.07,73.37-30.54,106.6-2.35,2.55-6.53,6.57-14.89,14.63-36.32,34.96-41.24,34.72-43.7,33.93-9.52-3.06-15.37-24.99-9.98-38.84,2.49-6.41,4.99-12.83,7.48-19.24,7.11,1.6,16.83,2.57,21.65-3.07.14-.17.28-.35.51-.66,3.42-4.44,17.98-24.47,8.89-37.99-5.09-7.57-16.67-11.71-25.07-8.36-9.33,3.73-11.76,15.51-15.67,30.29,1.4,9.12,3.73,32.81-9.56,56.13-18.11,31.78-58.83,51.68-97.88,40.75-30.12-8.44-53.36-33.57-60.82-65.1,7.81-4.28,21.25-10.56,38.74-12.97,38.67-5.33,61.83,13.13,84.8.15,15.31-8.65,24.87-22.08,24.87-22.08,1.62-2.27,2.89-4.35,5.1-7.97,3.52-5.79,8.19-14.12,12.66-24.41,6.29-14.48,6.09-18.8,4.18-20.89-5.33-5.84-23.18,6.46-29.25,0-3.59-3.82,1.41-9.44-2.09-17.76-4-9.5-15.11-13.09-16.71-13.58-13.41-4.13-18,5.6-32.38,3.13-14.68-2.52-16.54-13.81-27.16-12.53-11.72,1.4-17.7,16.13-24.02,13.58-3.39-1.37-2.56-5.95-7.31-8.36Z"/><path fill="#fff" d="m2804.66,1863.64l40.69,2.93s-.61,12.59-21.35,11.23c-20.74-1.36-19.34-14.16-19.34-14.16Z"/><path fill="#f79f8c" d="m2807.06,2443.51l3.06,33.78c9.63,1.58,17.83,3.11,17.83,3.11,6.25-1.74,52.97-15.11,47.9-20.24-16.77-16.99-42.48-17.95-48.86-17.88-7.37.06-13.95.54-19.92,1.23Z"/><g><path fill="#f79f8c" d="m2797.54,2500.8l-74.72,18.95c-6.75,1.78-13.36-1.01-14.87-7.35-1.55-6.31,3.86-11.28,10.66-13.05l92.09-29.15c6.8-1.79-6.38,28.79-13.17,30.6Z"/><path fill="#f79f8c" d="m2838.28,2536.28c3.21,5.69,11.32,12.97,5.1,16.2l-76.13,34.25c-6.27,3.22-16.49,2.36-19.72-3.32-3.2-5.67-.3-11.67,5.9-14.87l68.7-34.84c6.24-3.23,12.9-3.09,16.15,2.59Z"/><path fill="#f79f8c" d="m2814.91,2502.62c2.34,6.84-2.03,14.51-9.7,17.2l-84.61,27.69c-7.65,2.66-15.13.75-17.45-6.07-2.3-6.85,3.45-12.84,11.13-15.5l82.56-30.83c7.71-2.7,15.78.69,18.07,7.52Z"/><path fill="#f79f8c" d="m2829.1,2519.04c2.79,6.61,4.01,16.25-3.51,19.33l-86.71,29.55c-7.52,3.09-16.42,2.59-19.25-4.08-2.84-6.62,2.4-12.31,9.88-15.38l80.83-35.87c7.5-3.08,15.89-.19,18.75,6.45Z"/><path fill="#f79f8c" d="m2791.97,2477.9c24.16-6.59,65.81-40.51,87.88-14.05,22.09,26.47,25.48,67.7-38.73,90.63-46.4,15.63-49.14-76.58-49.14-76.58Z"/></g><g><path fill="#e5ebf7" d="m3389.72,2524.2v60.62c0,15.95-13.05,29-29,29H577.41c-15.95,0-29-13.05-29-29v-60.62c0,15.95,13.05,29,29,29h2783.31c15.95,0,29-13.05,29-29Z"/><path fill="#d6deea" d="m3389.72,2521.56v2.64c0,15.95-13.05,29-29,29H577.41c-15.95,0-29-13.05-29-29v-2.64c0-15.95,13.05-28.99,29-28.99h2783.31c15.95,0,29,13.04,29,28.99Z"/><rect width="749.17" height="31.95" x="757.86" y="2613.82" fill="#c5c5d3"/><path fill="#e9e9f1" d="m871.47,2860.49v543.97c0,5.56-4.55,10.1-10.1,10.1h-93.4c-4.2,0-7.83-2.6-9.35-6.28-.49-1.18-.76-2.47-.76-3.82v-543.97c0-1.35.27-2.64.76-3.81,1.51-3.68,5.14-6.29,9.35-6.29h93.4c5.56,0,10.1,4.55,10.1,10.1Z"/><rect width="113.61" height="564.19" x="1393.42" y="2850.37" fill="#e9e9f1" rx="10.1" ry="10.1"/><rect width="29.26" height="564.19" x="1393.42" y="2850.37" fill="#c5c5d3" rx="10.1" ry="10.1"/><rect width="113.61" height="805.8" x="3178.78" y="2608.77" fill="#e9e9f1" rx="10.1" ry="10.1"/><rect width="29.26" height="805.8" x="3178.78" y="2608.77" fill="#c5c5d3" rx="10.1" ry="10.1"/><rect width="749.17" height="354.1" x="757.86" y="2613.82" fill="#e9e9f1"/><path fill="#c5c5d3" d="m787.88,2613.82v800.74h-19.91c-4.2,0-7.83-2.6-9.35-6.28v-794.46h29.26Z"/></g><rect width="81.2" height="485.94" x="2875.13" y="2925.93" fill="#383a50" rx="12" ry="12"/><polygon fill="#383a50" points="2405.67 2086.39 2003.98 2086.39 2154.61 2489.34 2561.89 2489.34 2405.67 2086.39"/><polygon fill="#2c2f44" points="2877.1 2489.34 2877.1 2458.5 2598.15 2458.5 2455.88 2086.39 2405.67 2086.39 2561.89 2489.34 2877.1 2489.34"/><circle cx="2282.93" cy="2287.87" r="50.74" fill="#fff"/><rect width="819.4" height="1268.56" x="588.64" y="837.67" fill="#ee4b6d" rx="97.52" ry="97.52"/><rect width="653.93" height="26.68" x="644.46" y="978.54" fill="#fff" rx="12" ry="12"/><rect width="419.78" height="26.73" x="644.46" y="1029.55" fill="#fff" rx="12" ry="12"/><rect width="236.6" height="26.73" x="1088.5" y="1029.55" fill="#fff" rx="12" ry="12"/><rect width="419.78" height="26.73" x="905.33" y="1085.21" fill="#fff" rx="12" ry="12" transform="rotate(180 1115.215 1098.58)"/><rect width="236.6" height="26.73" x="644.46" y="1085.21" fill="#fff" rx="12" ry="12" transform="rotate(180 762.76 1098.58)"/><rect width="236.6" height="26.73" x="736.04" y="1175.91" fill="#fff" rx="12" ry="12" transform="rotate(180 854.345 1189.275)"/><rect width="236.6" height="26.73" x="996.91" y="1175.91" fill="#fff" rx="12" ry="12" transform="rotate(180 1115.215 1189.275)"/><rect width="93.93" height="26.73" x="1258.31" y="1175.91" fill="#fff" rx="12" ry="12" transform="rotate(180 1305.27 1189.275)"/><rect width="236.6" height="26.73" x="854.76" y="1246.27" fill="#fff" rx="12" ry="12"/><rect width="93.93" height="26.73" x="736.04" y="1246.27" fill="#fff" rx="12" ry="12"/><rect width="653.93" height="26.68" x="644.46" y="1690.08" fill="#fff" rx="12" ry="12"/><rect width="419.78" height="26.73" x="644.46" y="1741.09" fill="#fff" rx="12" ry="12"/><rect width="236.6" height="26.73" x="1088.5" y="1741.09" fill="#fff" rx="12" ry="12"/><rect width="419.78" height="26.73" x="905.33" y="1796.76" fill="#fff" rx="12" ry="12" transform="rotate(180 1115.215 1810.12)"/><rect width="236.6" height="26.73" x="644.46" y="1796.76" fill="#fff" rx="12" ry="12" transform="rotate(180 762.76 1810.12)"/><rect width="236.6" height="26.73" x="736.04" y="1887.45" fill="#fff" rx="12" ry="12" transform="rotate(180 854.345 1900.815)"/><rect width="236.6" height="26.73" x="996.91" y="1887.45" fill="#fff" rx="12" ry="12" transform="rotate(180 1115.215 1900.815)"/><rect width="93.93" height="26.73" x="1258.31" y="1887.45" fill="#fff" rx="12" ry="12" transform="rotate(180 1305.27 1900.815)"/><rect width="236.6" height="26.73" x="854.76" y="1957.81" fill="#fff" rx="12" ry="12"/><rect width="93.93" height="26.73" x="736.04" y="1957.81" fill="#fff" rx="12" ry="12"/><rect width="236.6" height="26.73" x="792.51" y="1417.79" fill="#fff" rx="12" ry="12"/><rect width="93.93" height="26.73" x="673.8" y="1417.79" fill="#fff" rx="12" ry="12"/><g><path fill="#fff" d="m1144.57,1512.51l-64.46,24.1,64.46,24.1v19.43l-86.13-33.44v-20.18l86.13-33.44v19.43Z"/><path fill="#fff" d="m1212.58,1444.69h20.93l-61.66,176h-20.93l61.66-176Z"/><path fill="#fff" d="m1324.12,1526.52v20.18l-86.13,33.44v-19.43l64.46-24.1-64.46-24.1v-19.43l86.13,33.44Z"/></g><g><path fill="#fff" d="m557.64,376.77c0-38.11,29.17-65.64,68.37-65.64,20.79,0,38.65,7.48,50.5,21.33l-15.32,14.4c-9.3-10.03-20.79-14.95-34.1-14.95-26.44,0-45.58,18.6-45.58,44.85s19.14,44.85,45.58,44.85c13.31,0,24.8-4.92,34.1-15.13l15.32,14.59c-11.85,13.86-29.72,21.33-50.69,21.33-39.02,0-68.19-27.53-68.19-65.64Z"/><path fill="#fff" d="m687.83,427.09l8.2-18.42c10.21,8.2,26.44,14.04,42.12,14.04,19.87,0,28.26-7.11,28.26-16.59,0-27.53-75.85-9.48-75.85-56.89,0-20.6,16.41-38.11,51.42-38.11,15.32,0,31.36,4.01,42.48,11.3l-7.48,18.42c-11.49-6.75-24.07-10.03-35.19-10.03-19.69,0-27.71,7.66-27.71,17.32,0,27.17,75.67,9.48,75.67,56.34,0,20.42-16.59,37.92-51.6,37.92-19.87,0-39.75-6.2-50.32-15.32Z"/><path fill="#fff" d="m802.51,427.09l8.2-18.42c10.21,8.2,26.44,14.04,42.12,14.04,19.87,0,28.26-7.11,28.26-16.59,0-27.53-75.85-9.48-75.85-56.89,0-20.6,16.41-38.11,51.42-38.11,15.32,0,31.36,4.01,42.48,11.3l-7.48,18.42c-11.49-6.75-24.07-10.03-35.19-10.03-19.69,0-27.71,7.66-27.71,17.32,0,27.17,75.67,9.48,75.67,56.34,0,20.42-16.59,37.92-51.6,37.92-19.87,0-39.75-6.2-50.32-15.32Z"/></g><rect width="549.39" height="269.22" x="2511.62" fill="#f2d563" rx="50.29" ry="50.29"/><g><path fill="#383a50" d="m2690.42,170.98l11.97-14.4c6.15,8.41,13.59,12.94,22.49,12.94,11.65,0,17.63-6.96,17.63-20.87v-58.56h-40.28v-17.63h61.31v75.06c0,26.69-13.27,39.8-38.18,39.8-14.24,0-27.18-5.82-34.94-16.34Z"/><path fill="#383a50" d="m2783.43,173.73l7.28-16.34c9.06,7.28,23.46,12.46,37.37,12.46,17.63,0,25.08-6.31,25.08-14.72,0-24.43-67.3-8.41-67.3-50.47,0-18.28,14.56-33.81,45.62-33.81,13.59,0,27.83,3.56,37.69,10.03l-6.63,16.34c-10.19-5.99-21.35-8.9-31.22-8.9-17.47,0-24.59,6.79-24.59,15.37,0,24.1,67.14,8.41,67.14,49.99,0,18.12-14.72,33.65-45.78,33.65-17.63,0-35.27-5.5-44.65-13.59Z"/></g></svg>